<?xml version="1.0" ?><!DOCTYPE svg PUBLIC "-//W3C//DTD SVG 1.1//EN" "http://www.w3.org/Graphics/SVG/1.1/DTD/svg11.dtd"><svg viewBox="0 0 548.358 548.358" xmlns="http://www.w3.org/2000/svg" xmlns:xlink="http://www.w3.org/1999/xlink"><style>:root>svg{display:none}:root>svg:target{display:block}</style><svg viewBox="0 0 64 64" id="call" xmlns="http://www.w3.org/2000/svg"><path d="M52.148 42.678l-6.479-4.527a5 5 0 00-6.963 1.238l-1.504 2.156c-2.52-1.69-5.333-4.05-8.014-6.732-2.68-2.68-5.04-5.493-6.73-8.013l2.154-1.504a4.96 4.96 0 002.064-3.225 4.98 4.98 0 00-.826-3.739l-4.525-6.478C20.378 10.5 18.85 9.69 17.24 9.69a4.69 4.69 0 00-1.628.291 8.97 8.97 0 00-1.685.828l-.895.63a6.782 6.782 0 00-.63.563c-1.092 1.09-1.866 2.472-2.303 4.104-1.865 6.99 2.754 17.561 11.495 26.301 7.34 7.34 16.157 11.9 23.011 11.9 1.175 0 2.281-.136 3.29-.406 1.633-.436 3.014-1.21 4.105-2.302.199-.199.388-.407.591-.67l.63-.899a9.007 9.007 0 00.798-1.64c.763-2.06-.007-4.41-1.871-5.713z"/></svg><svg viewBox="0 0 511.626 511.626" id="envelope" xmlns="http://www.w3.org/2000/svg"><path d="M49.106 178.729c6.472 4.567 25.981 18.131 58.528 40.685 32.548 22.554 57.482 39.92 74.803 52.099 1.903 1.335 5.946 4.237 12.131 8.71 6.186 4.476 11.326 8.093 15.416 10.852 4.093 2.758 9.041 5.852 14.849 9.277 5.806 3.422 11.279 5.996 16.418 7.7 5.14 1.718 9.898 2.569 14.275 2.569h.575c4.377 0 9.137-.852 14.277-2.569 5.137-1.704 10.615-4.281 16.416-7.7 5.804-3.429 10.752-6.52 14.845-9.277 4.093-2.759 9.229-6.376 15.417-10.852 6.184-4.477 10.232-7.375 12.135-8.71 17.508-12.179 62.051-43.11 133.615-92.79 13.894-9.703 25.502-21.411 34.827-35.116 9.332-13.699 13.993-28.07 13.993-43.105 0-12.564-4.523-23.319-13.565-32.264-9.041-8.947-19.749-13.418-32.117-13.418H45.679c-14.655 0-25.933 4.948-33.832 14.844C3.949 79.562 0 91.934 0 106.779c0 11.991 5.236 24.985 15.703 38.974 10.466 13.99 21.604 24.983 33.403 32.976z"/><path d="M483.072 209.275c-62.424 42.251-109.824 75.087-142.177 98.501-10.849 7.991-19.65 14.229-26.409 18.699-6.759 4.473-15.748 9.041-26.98 13.702-11.228 4.668-21.692 6.995-31.401 6.995h-.578c-9.707 0-20.177-2.327-31.405-6.995-11.228-4.661-20.223-9.229-26.98-13.702-6.755-4.47-15.559-10.708-26.407-18.699-25.697-18.842-72.995-51.68-141.896-98.501C17.987 202.047 8.375 193.762 0 184.437v226.685c0 12.57 4.471 23.319 13.418 32.265 8.945 8.949 19.701 13.422 32.264 13.422h420.266c12.56 0 23.315-4.473 32.261-13.422 8.949-8.949 13.418-19.694 13.418-32.265V184.437c-8.186 9.132-17.7 17.417-28.555 24.838z"/></svg><svg id="facebook" version="1.1" viewBox="0 0 512 512" xml:space="preserve" xmlns="http://www.w3.org/2000/svg"><style>.cicons-social{fill:#8993ad}</style><path class="cicons-social" d="M308.3 508.5c-2.5.1-4.1.3-5.7.3-34.2 0-68.3-.1-102.5.1-4.8 0-6.1-1.3-6.1-6.1.1-79.6.1-159.3.1-238.9V257H139v-85h5.4c15 0 30-.1 45 .1 3.8 0 4.8-1.1 4.8-4.8-.2-22.3-.2-44.7 0-67 .1-15.6 2.6-30.8 9.8-44.9 10.3-19.9 26.6-32.8 47.2-40.8 16.8-6.6 34.5-9 52.3-9.3 29-.4 58-.2 87-.3 2.7 0 4.9-.1 4.9 3.7-.1 27.5-.1 55-.1 82.5 0 .3-.1.6-.5 1.9h-5.5c-18 0-36-.1-54 0-10.4 0-18.8 4.2-24.1 13.3-1.6 2.7-2.6 6.2-2.6 9.4-.3 17 0 34-.2 51 0 4 1.2 5.1 5.1 5.1 25-.2 50-.1 75-.1h7.3c-3.5 28.6-6.9 56.6-10.4 84.9h-77.1v251.8z"/></svg><svg version="1.1" id="instagram" x="0" y="0" xml:space="preserve" viewBox="0 0 438.536 438.536" xmlns="http://www.w3.org/2000/svg"><style>.dicons-social{fill:#8993ad}</style><path class="dicons-social" d="M421.981 16.562C410.941 5.519 397.711 0 382.298 0H56.248C40.83 0 27.604 5.521 16.561 16.562 5.52 27.6.001 40.828.001 56.243V382.29c0 15.413 5.518 28.644 16.56 39.683 11.043 11.04 24.272 16.563 39.687 16.563h326.046c15.41 0 28.644-5.523 39.684-16.563 11.043-11.039 16.557-24.27 16.557-39.683V56.243c-.001-15.418-5.514-28.639-16.554-39.681zM157.462 158.025c17.224-16.652 37.924-24.982 62.097-24.982 24.36 0 45.153 8.33 62.381 24.982 17.228 16.655 25.837 36.785 25.837 60.386 0 23.598-8.609 43.729-25.837 60.379-17.228 16.659-38.014 24.988-62.381 24.988-24.172 0-44.87-8.336-62.097-24.988-17.228-16.652-25.841-36.781-25.841-60.379 0-23.601 8.613-43.73 25.841-60.386zm231.403 212.564c0 4.945-1.718 9.083-5.141 12.416-3.433 3.33-7.519 4.996-12.282 4.996h-305.2c-4.948 0-9.091-1.666-12.419-4.996-3.333-3.326-4.998-7.471-4.998-12.416V185.575H89.08c-3.805 11.993-5.708 24.462-5.708 37.402 0 36.553 13.322 67.715 39.969 93.511 26.65 25.786 58.721 38.685 96.217 38.685 24.744 0 47.583-5.903 68.527-17.703 20.937-11.807 37.486-27.839 49.676-48.112 12.183-20.272 18.274-42.4 18.274-66.38 0-12.94-1.91-25.406-5.715-37.402h38.547V370.59h-.002zm0-254.963c0 5.52-1.903 10.184-5.716 13.99-3.805 3.809-8.466 5.711-13.989 5.711h-49.676c-5.517 0-10.185-1.903-13.99-5.711-3.806-3.806-5.708-8.47-5.708-13.99V68.522c0-5.33 1.902-9.945 5.708-13.848 3.806-3.901 8.474-5.854 13.99-5.854h49.676c5.523 0 10.185 1.952 13.989 5.854 3.812 3.903 5.716 8.518 5.716 13.848v47.104z"/></svg><svg viewBox="-74 0 100 100" id="phone_handset_icon_125195" xmlns="http://www.w3.org/2000/svg"><path d="M21.2 71.7L9.1 59.5c-2-2-4.7-3.2-7.2-3.2-2.7 0-5.1 1.1-7.2 3.2l-7 7c-.3-.2-.7-.4-1-.5 0 0-.1 0-.1-.1l-.1-.1c-.9-.6-1.9-1.2-3.1-1.7-6.1-3.8-11.8-9.1-17.6-16.2-2.7-3.4-4.6-6.4-6.1-9.7 1.6-1.3 2.8-2.6 3.7-3.6l3.1-3.1c2.4-2.2 3.6-4.7 3.6-7.3 0-2.7-1.2-5.2-3.5-7.6l-9.5-9.5c-.9-.9-1.8-1.8-2.8-2.7-2-1.9-4.5-3-7.1-3-2.9 0-5.3 1-7.5 3.2l-7.3 7.3c-2.9 2.7-4.6 6.1-5 10.3v.1c-.2 5.2.6 10 2.8 16 3.5 9.4 8.8 18.2 16.7 27.9C-42.8 77.8-31.2 86.8-18.3 93l.3.1c3.8 1.7 11 4.9 19 5.4h1.1c5.3 0 9.3-1.7 12.6-5.3 1.2-1.4 2.5-2.7 3.6-3.9.9-.7 1.5-1.4 2.1-2.1l.8-.8.2-.2c4.2-4.6 4.2-10.2-.2-14.5zm-3.5 11.1l-1 1-.1.2c-.5.6-.9 1.1-1.4 1.5l-.3.3c-1.2 1.2-2.6 2.6-4 4.2-2.3 2.5-4.9 3.6-8.8 3.6h-.8c-7-.5-13.4-3.3-17.2-5l-.2-.1C-28.4 82.6-39.5 74-49.2 63c-7.6-9.2-12.6-17.6-15.9-26.4-2-5.5-2.7-9.5-2.5-14 .3-2.9 1.4-5.2 3.4-7l7.4-7.4c1.2-1.2 2.4-1.7 3.9-1.7 1.3 0 2.5.6 3.6 1.6l.1.1c.9.8 1.8 1.7 2.7 2.6l9.5 9.5c1.8 1.8 2.1 3.2 2.1 4 0 .8-.2 2-2.1 3.7l-3.2 3.2c-1.1 1.2-2.4 2.5-4.1 3.9l-.2.2-.2.3c-.9 1.2-1 2.3-.5 3.9l.1.4.1.4c1.7 3.7 3.8 7.1 6.8 10.9 6.2 7.6 12.4 13.3 19 17.4l.3.2c.8.4 1.6.8 2.3 1.2.3.3.7.5 1 .6.4.2.7.3.9.5l.7.5h.2l.3.1c.6.2 1 .2 1.3.2 1 0 1.9-.4 2.8-1.3l7.5-7.5c1.2-1.2 2.3-1.7 3.7-1.7 1.5 0 2.9.9 3.7 1.7l12.2 12.2c2.4 2.4 2.5 4.9 0 7.5z"/></svg><svg id="twitter" version="1.1" viewBox="0 0 512 512" xml:space="preserve" xmlns="http://www.w3.org/2000/svg"><style>.ficons-social{fill:#8993ad}</style><path class="ficons-social" d="M4 440.5c55.6 5 105.7-9 151.3-43.2-47.7-4.2-79.6-28-97.4-72.6 15.6 1.9 30.2 2.4 45.7-1.8-51.4-16-78.8-49.6-82.5-103.8 15.4 7.2 29.9 12.4 47 12.6-30.5-22.9-46.1-52.6-45.5-90 .3-17.2 4.9-33.4 14-48.7C93.1 159.1 164 195.7 251.3 201.8c-.5-3.8-.8-6.8-1.2-9.9-7.2-55.4 28.8-105.8 83.8-116.3 34.5-6.6 65 2.5 90.8 26.3 4 3.6 7.4 4.4 12.4 3.1 20.1-5.1 39.2-12.5 57.7-22.5-7.1 23.4-21.7 41-41.5 55.8 4.5-.8 9.1-1.4 13.6-2.3 4.7-1 9.4-2.1 14.1-3.4 4.5-1.2 8.9-2.6 13.3-4.1 4.5-1.5 9-3.2 14.3-4.1-2.6 3.6-5.1 7.4-7.9 10.9-11.6 14.7-25 27.6-39.7 39.1-1.5 1.2-2.8 3.8-2.7 5.6.8 35.5-4.2 70.1-15.7 103.7-22.6 66.2-62 119.8-121.1 158.1-29.2 18.9-61.1 31.3-95.2 38.5-33.8 7.1-67.8 8.4-101.9 4.4-34.2-4-66.7-14.1-97.3-29.9-8.1-4.1-15.9-8.7-23.8-13.1.3-.4.5-.8.7-1.2z"/></svg><svg version="1.1" id="vk" x="0" y="0" xml:space="preserve" viewBox="0 0 548.358 548.358" xmlns="http://www.w3.org/2000/svg"><style>.gicons-social{fill:#8993ad}</style><path class="gicons-social" d="M545.451 400.298c-.664-1.431-1.283-2.618-1.858-3.569-9.514-17.135-27.695-38.167-54.532-63.102l-.567-.571-.284-.28-.287-.287h-.288c-12.18-11.611-19.893-19.418-23.123-23.415-5.91-7.614-7.234-15.321-4.004-23.13 2.282-5.9 10.854-18.36 25.696-37.397 7.807-10.089 13.99-18.175 18.556-24.267 32.931-43.78 47.208-71.756 42.828-83.939l-1.701-2.847c-1.143-1.714-4.093-3.282-8.846-4.712-4.764-1.427-10.853-1.663-18.278-.712l-82.224.568c-1.332-.472-3.234-.428-5.712.144l-3.713.859-1.431.715-1.136.859c-.952.568-1.999 1.567-3.142 2.995-1.137 1.423-2.088 3.093-2.848 4.996-8.952 23.031-19.13 44.444-30.553 64.238-7.043 11.803-13.511 22.032-19.418 30.693-5.899 8.658-10.848 15.037-14.842 19.126-4 4.093-7.61 7.372-10.852 9.849-3.237 2.478-5.708 3.525-7.419 3.142-1.715-.383-3.33-.763-4.859-1.143-2.663-1.714-4.805-4.045-6.42-6.995-1.622-2.95-2.714-6.663-3.285-11.136-.568-4.476-.904-8.326-1-11.563-.089-3.233-.048-7.806.145-13.706.198-5.903.287-9.897.287-11.991 0-7.234.141-15.085.424-23.555.288-8.47.521-15.181.716-20.125.194-4.949.284-10.185.284-15.705s-.336-9.849-1-12.991a44.442 44.442 0 00-2.99-9.137c-1.335-2.95-3.289-5.232-5.853-6.852-2.569-1.618-5.763-2.902-9.564-3.856-10.089-2.283-22.936-3.518-38.547-3.71-35.401-.38-58.148 1.906-68.236 6.855-3.997 2.091-7.614 4.948-10.848 8.562-3.427 4.189-3.905 6.475-1.431 6.851 11.422 1.711 19.508 5.804 24.267 12.275l1.715 3.429c1.334 2.474 2.666 6.854 3.999 13.134 1.331 6.28 2.19 13.227 2.568 20.837.95 13.897.95 25.793 0 35.689-.953 9.9-1.853 17.607-2.712 23.127-.859 5.52-2.143 9.993-3.855 13.418-1.715 3.426-2.856 5.52-3.428 6.28-.571.76-1.047 1.239-1.425 1.427a21.387 21.387 0 01-7.71 1.431c-2.667 0-5.901-1.334-9.707-4-3.805-2.666-7.754-6.328-11.847-10.992-4.093-4.665-8.709-11.184-13.85-19.558-5.137-8.374-10.467-18.271-15.987-29.691l-4.567-8.282c-2.855-5.328-6.755-13.086-11.704-23.267-4.952-10.185-9.329-20.037-13.134-29.554-1.521-3.997-3.806-7.04-6.851-9.134l-1.429-.859c-.95-.76-2.475-1.567-4.567-2.427a30.301 30.301 0 00-6.567-1.854l-78.229.568c-7.994 0-13.418 1.811-16.274 5.428l-1.143 1.711c-.571.953-.859 2.475-.859 4.57 0 2.094.571 4.664 1.714 7.707 11.42 26.84 23.839 52.725 37.257 77.659 13.418 24.934 25.078 45.019 34.973 60.237 9.897 15.229 19.985 29.602 30.264 43.112 10.279 13.515 17.083 22.176 20.412 25.981 3.333 3.812 5.951 6.662 7.854 8.565l7.139 6.851c4.568 4.569 11.276 10.041 20.127 16.416 8.853 6.379 18.654 12.659 29.408 18.85 10.756 6.181 23.269 11.225 37.546 15.126 14.275 3.905 28.169 5.472 41.684 4.716h32.834c6.659-.575 11.704-2.669 15.133-6.283l1.136-1.431c.764-1.136 1.479-2.901 2.139-5.276.668-2.379 1-5 1-7.851-.195-8.183.428-15.558 1.852-22.124 1.423-6.564 3.045-11.513 4.859-14.846 1.813-3.33 3.859-6.14 6.136-8.418 2.282-2.283 3.908-3.666 4.862-4.142.948-.479 1.705-.804 2.276-.999 4.568-1.522 9.944-.048 16.136 4.429 6.187 4.473 11.99 9.996 17.418 16.56 5.425 6.57 11.943 13.941 19.555 22.124 7.617 8.186 14.277 14.271 19.985 18.274l5.708 3.426c3.812 2.286 8.761 4.38 14.853 6.283 6.081 1.902 11.409 2.378 15.984 1.427l73.087-1.14c7.229 0 12.854-1.197 16.844-3.572 3.998-2.379 6.373-5 7.139-7.851.764-2.854.805-6.092.145-9.712-.677-3.611-1.344-6.136-2.008-7.563z"/></svg></svg>